<?xml version="1.0" encoding="UTF-8"?>
<svg id="Layer_1" data-name="Layer 1" xmlns="http://www.w3.org/2000/svg" viewBox="0 0 393.66 280.54">
  <defs>
    <style>
      .cls-1 {
        fill: #00365f;
      }

      .cls-2 {
        fill: #00783a;
      }

      .cls-3 {
        fill: #0071b2;
      }

      .cls-4 {
        fill: #00a2a0;
      }

      .cls-5 {
        fill: #ccd400;
      }

      .cls-6 {
        fill: #2da736;
      }
    </style>
  </defs>
  <rect class="cls-2" x="28.33" y="125.09" width="97.04" height="32.23"/>
  <path class="cls-4" d="m125.37,125.09s22.86,22.86,0,45.72l-68.57,68.57s-22.86-22.86,0-45.71c22.86-22.86,68.57-68.57,68.57-68.57"/>
  <path class="cls-5" d="m78.73,0s22.86,22.86,0,45.71C55.88,68.57,10.16,114.29,10.16,114.29c0,0-22.86-22.86,0-45.71L78.73,0Z"/>
  <path class="cls-6" d="m96.9,43.03s22.86,22.86,0,45.72c-22.86,22.86-68.57,68.57-68.57,68.57,0,0-22.86-22.86,0-45.71L96.9,43.03Z"/>
  <path class="cls-3" d="m144.79,166.25s-45.71,45.72-68.57,68.57c-22.86,22.86,0,45.71,0,45.71,0,0,45.72-45.71,68.57-68.57,22.86-22.86,0-45.72,0-45.72"/>
  <path class="cls-1" d="m211.89,82.96c-15.57,0-18.87-6.52-18.87-12.58v-5.91l11.59-.46v3.61c0,3.45,1.68,5.75,7.44,5.75s7.67-3.38,7.59-7.13c0-3.76-1.45-5.76-6.21-7.14l-8.29-2.38c-8.51-2.38-12.2-6.98-12.2-14.65,0-9.05,5.83-15.81,20.18-15.81s18.03,5.9,18.03,12.2v5.6l-11.28.46v-3.98c0-2.77-1.68-5.3-7.06-5.3-5.06,0-7.21,2.38-7.28,5.83-.08,3.61,1.99,5.68,6.44,6.98l8.29,2.23c8.21,2.15,12.13,6.29,12.13,14.88,0,10.13-6.14,17.8-20.49,17.8"/>
  <path class="cls-1" d="m265.68,82.73c-15.95,0-20.48-8.36-20.48-18.64V27.64h12.2v36.05c0,6.3,2.3,9.06,8.44,9.06s8.13-3.38,8.13-8.98V27.64h12.2v36.05c0,9.82-4.45,19.03-20.49,19.03"/>
  <path class="cls-1" d="m314.94,58.87h12.12l-5.76-21.41h-.61l-5.75,21.41Zm-17.34,22.71v-3.76l14.88-50.18h17.26l15.27,50.18v3.76h-11.81l-3.3-12.28h-17.73l-3.3,12.28h-11.28Z"/>
  <path class="cls-1" d="m373.17,82.96c-15.57,0-18.87-6.52-18.87-12.58v-5.91l11.59-.46v3.61c0,3.45,1.68,5.75,7.44,5.75s7.67-3.38,7.59-7.13c0-3.76-1.45-5.76-6.21-7.14l-8.29-2.38c-8.51-2.38-12.2-6.98-12.2-14.65,0-9.05,5.83-15.81,20.18-15.81s18.03,5.9,18.03,12.2v5.6l-11.28.46v-3.98c0-2.77-1.68-5.3-7.06-5.3-5.06,0-7.21,2.38-7.28,5.83-.08,3.61,1.99,5.68,6.44,6.98l8.29,2.23c8.21,2.15,12.13,6.29,12.13,14.88,0,10.13-6.14,17.8-20.49,17.8"/>
  <g>
    <path class="cls-1" d="m215.62,141.77h21.13v26.75h-4.26l-.91-5.47c-3.04,3.65-7.75,6.69-15.2,6.69-13.91,0-18.47-8.28-18.47-19.31v-16.72c0-10.11,4.86-19.84,20.14-19.84s18.39,8.66,18.39,15.88v3.12l-6.61.38v-3.34c0-4.94-1.9-10.18-12.01-10.18-9.5,0-13.15,5.55-13.15,13.68v16.49c0,9.12,3.42,13.98,12.62,13.98,10.56,0,13.15-6.46,13.15-11.7v-4.64h-14.82v-5.78Z"/>
    <path class="cls-1" d="m281.3,168.53l-11.55-21.97h-10.49v21.97h-6.61v-53.43h19.23c8.51,0,14.9,4.86,14.9,12.54v5.55c0,6.84-4.71,11.02-10.26,12.46l11.17,20.67v2.2h-6.38Zm-22.04-27.82h9.8c5.55,0,11.02-1.82,11.02-8.28v-3.57c0-4.79-3.34-7.9-10.41-7.9h-10.41v19.76Z"/>
    <path class="cls-1" d="m301.04,168.75v-5.55h7.9v-42.56h-7.9v-5.55h22.34v5.55h-7.83v42.56h7.83v5.55h-22.34Z"/>
    <path class="cls-1" d="m338.21,168.53v-53.43h18.47c15.12,0,20.22,8.44,20.22,18.32v16.42c0,9.88-4.64,18.7-20.83,18.7h-17.86Zm6.61-47.65v41.73h11.93c9.58,0,13.45-4.71,13.45-12.92v-16.42c0-7.45-3.8-12.31-13.68-12.31l-11.71-.08Z"/>
  </g>
</svg>